HIERARCHY
ROOT hip
{
  OFFSET 0.00112043 5.09927 -9.65472
  CHANNELS 6 Xposition Yposition Zposition Zrotation Xrotation Yrotation
  JOINT abdomen
  {
    OFFSET 0 -1.186 -1.5018
    CHANNELS 3 Zrotation Xrotation Yrotation
    JOINT abdomen2
    {
      OFFSET 0 9.964 0.2134
      CHANNELS 3 Zrotation Xrotation Yrotation
      JOINT chest
      {
        OFFSET 0 13.134 -3.2573
        CHANNELS 3 Zrotation Xrotation Yrotation
        JOINT neck
        {
          OFFSET 0 20.686 -1.6905
          CHANNELS 3 Zrotation Xrotation Yrotation
          JOINT head
          {
            OFFSET 0 7.238 -0.1237
            CHANNELS 3 Zrotation Xrotation Yrotation
            End Site
            {
              OFFSET 0 0 0
            }
          }
        }
        JOINT lCollar
        {
          OFFSET 1.7069 20.075 5.0056
          CHANNELS 3 Zrotation Xrotation Yrotation
          JOINT lShldr
          {
            OFFSET 13.6458 -0.047 -4.849
            CHANNELS 3 Zrotation Xrotation Yrotation
            JOINT lForeArm
            {
              OFFSET 28.3255 -0.9759 2.2888
              CHANNELS 3 Zrotation Xrotation Yrotation
              JOINT lHand
              {
                OFFSET 22.1583 -0.53 10.8316
                CHANNELS 3 Zrotation Xrotation Yrotation
                JOINT lThumb1
                {
                  OFFSET 0.786 0.112 2.5817
                  CHANNELS 3 Zrotation Xrotation Yrotation
                  JOINT lThumb2
                  {
                    OFFSET 0.3601 -0.878 4.2331
                    CHANNELS 3 Zrotation Xrotation Yrotation
                    JOINT lThumb2_End
                    {
                      OFFSET 1.8127 -1.216 2.2227
                      CHANNELS 3 Zrotation Xrotation Yrotation
                      End Site
                      {
                        OFFSET 0.0181 -0.0122 0.0222
                      }
                    }
                  }
                }
                JOINT lCarpal1
                {
                  OFFSET 0.9571 1.114 1.7695
                  CHANNELS 3 Zrotation Xrotation Yrotation
                  JOINT lIndex1
                  {
                    OFFSET 4.1246 0.487 4.1451
                    CHANNELS 3 Zrotation Xrotation Yrotation
                    JOINT lIndex2
                    {
                      OFFSET 3.4052 -1.454 2.7682
                      CHANNELS 3 Zrotation Xrotation Yrotation
                      JOINT lIndex2_End
                      {
                        OFFSET 1.4531 -1.795 1.2713
                        CHANNELS 3 Zrotation Xrotation Yrotation
                        End Site
                        {
                          OFFSET 0.0145 -0.0179 0.0127
                        }
                      }
                    }
                  }
                  JOINT lMid1
                  {
                    OFFSET 5.6954 0.21 2.1184
                    CHANNELS 3 Zrotation Xrotation Yrotation
                    JOINT lMid2
                    {
                      OFFSET 3.9766 -1.54 2.3863
                      CHANNELS 3 Zrotation Xrotation Yrotation
                      JOINT lMid2_End
                      {
                        OFFSET 1.4042 -1.926 1.125
                        CHANNELS 3 Zrotation Xrotation Yrotation
                        End Site
                        {
                          OFFSET 0.014 -0.0193 0.0113
                        }
                      }
                    }
                  }
                }
                JOINT lCarpal2
                {
                  OFFSET 2.0956 0.66 -0.3894
                  CHANNELS 3 Zrotation Xrotation Yrotation
                  JOINT lRing1
                  {
                    OFFSET 5.0395 -0.09 2.4971
                    CHANNELS 3 Zrotation Xrotation Yrotation
                    JOINT lRing2
                    {
                      OFFSET 3.7921 -1.552 1.4806
                      CHANNELS 3 Zrotation Xrotation Yrotation
                      JOINT lRing2_End
                      {
                        OFFSET 1.4655 -1.808 0.9609
                        CHANNELS 3 Zrotation Xrotation Yrotation
                        End Site
                        {
                          OFFSET 0.0147 -0.0181 0.0096
                        }
                      }
                    }
                  }
                  JOINT lPinky1
                  {
                    OFFSET 4.9141 -1.269 0.3591
                    CHANNELS 3 Zrotation Xrotation Yrotation
                    JOINT lPinky2
                    {
                      OFFSET 3.1477 -1.685 0.8462
                      CHANNELS 3 Zrotation Xrotation Yrotation
                      JOINT lPinky2_End
                      {
                        OFFSET 0.8055 -1.585 0.7955
                        CHANNELS 3 Zrotation Xrotation Yrotation
                        End Site
                        {
                          OFFSET 0.0081 -0.0158 0.008
                        }
                      }
                    }
                  }
                }
              }
            }
          }
        }
        JOINT rCollar
        {
          OFFSET -1.7069 20.075 5.0056
          CHANNELS 3 Zrotation Xrotation Yrotation
          JOINT rShldr
          {
            OFFSET -13.6458 -0.047 -4.849
            CHANNELS 3 Zrotation Xrotation Yrotation
            JOINT rForeArm
            {
              OFFSET -28.3255 -0.9759 2.2888
              CHANNELS 3 Zrotation Xrotation Yrotation
              JOINT rHand
              {
                OFFSET -22.1583 -0.53 10.8316
                CHANNELS 3 Zrotation Xrotation Yrotation
                JOINT rThumb1
                {
                  OFFSET -0.786 0.112 2.5817
                  CHANNELS 3 Zrotation Xrotation Yrotation
                  JOINT rThumb2
                  {
                    OFFSET -0.3601 -0.878 4.2331
                    CHANNELS 3 Zrotation Xrotation Yrotation
                    JOINT rThumb2_End
                    {
                      OFFSET -1.8127 -1.216 2.2227
                      CHANNELS 3 Zrotation Xrotation Yrotation
                      End Site
                      {
                        OFFSET -0.0181 -0.0122 0.0222
                      }
                    }
                  }
                }
                JOINT rCarpal1
                {
                  OFFSET -0.9571 1.114 1.7695
                  CHANNELS 3 Zrotation Xrotation Yrotation
                  JOINT rIndex1
                  {
                    OFFSET -4.1246 0.487 4.1451
                    CHANNELS 3 Zrotation Xrotation Yrotation
                    JOINT rIndex2
                    {
                      OFFSET -3.4052 -1.454 2.7682
                      CHANNELS 3 Zrotation Xrotation Yrotation
                      JOINT rIndex2_End
                      {
                        OFFSET -1.4531 -1.795 1.2713
                        CHANNELS 3 Zrotation Xrotation Yrotation
                        End Site
                        {
                          OFFSET -0.0145 -0.018 0.0127
                        }
                      }
                    }
                  }
                  JOINT rMid1
                  {
                    OFFSET -5.6954 0.21 2.1184
                    CHANNELS 3 Zrotation Xrotation Yrotation
                    JOINT rMid2
                    {
                      OFFSET -3.9766 -1.54 2.3863
                      CHANNELS 3 Zrotation Xrotation Yrotation
                      JOINT rMid2_End
                      {
                        OFFSET -1.4042 -1.926 1.125
                        CHANNELS 3 Zrotation Xrotation Yrotation
                        End Site
                        {
                          OFFSET -0.014 -0.0193 0.0113
                        }
                      }
                    }
                  }
                }
                JOINT rCarpal2
                {
                  OFFSET -2.0956 0.66 -0.3894
                  CHANNELS 3 Zrotation Xrotation Yrotation
                  JOINT rRing1
                  {
                    OFFSET -5.0395 -0.09 2.4971
                    CHANNELS 3 Zrotation Xrotation Yrotation
                    JOINT rRing2
                    {
                      OFFSET -3.7921 -1.552 1.4806
                      CHANNELS 3 Zrotation Xrotation Yrotation
                      JOINT rRing2_End
                      {
                        OFFSET -1.4655 -1.808 0.9609
                        CHANNELS 3 Zrotation Xrotation Yrotation
                        End Site
                        {
                          OFFSET -0.0147 -0.0181 0.0096
                        }
                      }
                    }
                  }
                  JOINT rPinky1
                  {
                    OFFSET -4.9141 -1.269 0.3592
                    CHANNELS 3 Zrotation Xrotation Yrotation
                    JOINT rPinky2
                    {
                      OFFSET -3.1477 -1.685 0.8462
                      CHANNELS 3 Zrotation Xrotation Yrotation
                      JOINT rPinky2_End
                      {
                        OFFSET -0.8055 -1.585 0.7955
                        CHANNELS 3 Zrotation Xrotation Yrotation
                        End Site
                        {
                          OFFSET -0.0081 -0.0158 0.008
                        }
                      }
                    }
                  }
                }
              }
            }
          }
        }
      }
    }
  }
  JOINT lThigh
  {
    OFFSET 8.367 -8.2066 0.5982
    CHANNELS 3 Zrotation Xrotation Yrotation
    JOINT lShin
    {
      OFFSET 2.1923 -43.463 -0.4932
      CHANNELS 3 Zrotation Xrotation Yrotation
      JOINT lFoot
      {
        OFFSET 0.7333 -45.8593 -2.6451
        CHANNELS 3 Zrotation Xrotation Yrotation
        End Site
        {
          OFFSET 2.6618 -4.2699 12.3931
        }
      }
    }
  }
  JOINT rThigh
  {
    OFFSET -8.367 -8.2066 0.5982
    CHANNELS 3 Zrotation Xrotation Yrotation
    JOINT rShin
    {
      OFFSET -2.1923 -43.463 -0.4931
      CHANNELS 3 Zrotation Xrotation Yrotation
      JOINT rFoot
      {
        OFFSET -0.7333 -45.8593 -2.6451
        CHANNELS 3 Zrotation Xrotation Yrotation
        End Site
        {
          OFFSET -2.6618 -4.2699 12.3931
        }
      }
    }
  }
}
MOTION
Frames:	4
Frame Time:	0.0333333
0 91.7903 2.51682 0 0 -0 0 0 -0 0 0 -0 0 0 -0 0 0 -0 0 0 -0 0 0 -0 1.66051 0.0835086 5.75766 -0.0175111 0.895433 15.7816 7.95139e-016 -1.98785e-016 -0 5.46658e-016 -3.97569e-016 -0 5.96354e-016 0 -0 3.97569e-016 1.98785e-016 9.54166e-015 1.49089e-016 -3.97569e-016 -0 6.4605e-016 0 3.18055e-015 5.96354e-016 0 3.18055e-015 8.94531e-016 -1.98785e-016 6.36111e-015 6.4605e-016 0 3.18055e-015 5.96354e-016 0 3.18055e-015 8.94531e-016 -1.98785e-016 6.36111e-015 1.49089e-016 -3.97569e-016 -0 6.4605e-016 0 3.18055e-015 5.96354e-016 0 3.18055e-015 8.94531e-016 -1.98785e-016 6.36111e-015 6.4605e-016 0 3.18055e-015 5.96354e-016 0 3.18055e-015 8.94531e-016 -1.98785e-016 6.36111e-015 0 0 -0 -1.4496 0.0636048 -5.0245 -1.74811 1.20616 -16.8394 -1.19271e-015 1.98785e-016 -3.18055e-015 -3.97569e-016 1.98785e-016 -3.18055e-015 -2.98177e-016 1.98785e-016 -3.18055e-015 -2.98177e-016 3.97569e-016 -0 4.96962e-016 0 -6.36111e-015 -9.93923e-017 3.97569e-016 -0 -8.94531e-016 5.96354e-016 -0 -3.97569e-016 3.97569e-016 -0 -9.93923e-017 3.97569e-016 -0 -8.94531e-016 5.96354e-016 -0 -3.97569e-016 3.97569e-016 -0 4.96962e-016 0 -6.36111e-015 -9.93923e-017 3.97569e-016 -0 -8.94531e-016 5.96354e-016 -0 -3.97569e-016 3.97569e-016 -0 -9.93923e-017 3.97569e-016 -0 -8.94531e-016 5.96354e-016 -0 -3.97569e-016 3.97569e-016 -0 -4.66111 -0.998717 0.12318 0.00986924 1.54847 0.176523 4.65186 -0.572283 -0.254274 4.66111 -0.998765 -0.123176 -0.00986867 1.54869 -0.176537 -4.65186 -0.572453 0.25427 
-8.89531 29.9348 0.535359 66.6667 1.86792e-007 5.1864 0.138876 4.05128 -0.123208 0.287785 8.1022 -0.257295 0.287748 8.1022 -0.257291 0.0144339 5.89946 -0.00411837 -9.67807 7.21902 1.66431 -25.1874 4.09004 -14.494 -11.5904 2.68059 -24.3046 -15.8688 14.0784 7.22164 -4.92603 1.94341 -0.0852349 -7.95139e-016 9.54166e-015 -1.19271e-015 3.95578e-007 7.64545e-009 1.59262e-007 7.95139e-016 3.18055e-015 -7.95139e-016 -1.19271e-015 3.18055e-015 -0 -3.97569e-016 1.59028e-014 6.36111e-015 3.95578e-007 7.64544e-009 1.59262e-007 7.95139e-016 -3.18055e-015 -0 -3.97569e-016 1.59028e-014 6.36111e-015 3.95578e-007 7.64544e-009 1.59262e-007 7.95139e-016 -3.18055e-015 -0 -1.19271e-015 3.18055e-015 -0 -3.97569e-016 1.59028e-014 6.36111e-015 3.95578e-007 7.64544e-009 1.59262e-007 7.95139e-016 -3.18055e-015 -0 -3.97569e-016 1.59028e-014 6.36111e-015 3.95578e-007 7.64544e-009 1.59262e-007 7.95139e-016 -3.18055e-015 -0 -0.464407 3.25112 -3.97059 59.2801 -1.01118 -23.1661 -12.8258 -1.23935 60.8964 0.198004 -11.4961 4.72895 -2.67275e-006 2.78398e-006 -1.90166e-006 2.67275e-006 -2.78398e-006 1.90166e-006 -2.67275e-006 2.78398e-006 -1.90166e-006 4.37326e-015 0 -6.36111e-015 -2.67275e-006 2.78398e-006 -1.90166e-006 2.67275e-006 -2.78398e-006 1.90166e-006 -2.67275e-006 2.78398e-006 -1.90166e-006 -2.67275e-006 2.78398e-006 -1.90166e-006 2.67275e-006 -2.78398e-006 1.90166e-006 -2.67275e-006 2.78398e-006 -1.90166e-006 4.37326e-015 0 -6.36111e-015 -2.67275e-006 2.78398e-006 -1.90166e-006 2.67275e-006 -2.78398e-006 1.90166e-006 -2.67275e-006 2.78398e-006 -1.90166e-006 -2.67275e-006 2.78398e-006 -1.90166e-006 2.67275e-006 -2.78398e-006 1.90166e-006 -2.67275e-006 2.78398e-006 -1.90166e-006 20.1506 -50.773 48.2133 -50.2809 71.5562 57.6651 4.6493 17.6879 -4.98564 -14.2596 -44.1547 -23.5532 3.23378 51.3297 -4.9692 -6.44402 13.5992 0.529398 
-8.65536 0.0741359 0.381886 96.6667 -2.39586e-007 7.52028 0.199643 5.90271 -0.185075 0.421944 11.8047 -0.394118 0.421957 11.8047 -0.39412 -0.0537855 8.6815 0.0146901 -14.2762 10.4595 2.46067 -35.5206 5.51639 -20.6103 -16.6322 3.05736 -38.0736 -22.5964 19.6521 2.28287 -6.63435 2.62631 0.306926 -1.59028e-015 -6.36111e-015 1.19271e-015 -4.95563e-007 -2.7927e-006 -5.81171e-007 1.31089e-006 -4.93101e-007 -5.59556e-007 -7.95139e-016 -6.36111e-015 -0 -1.59028e-015 0 7.15625e-015 -4.95563e-007 -2.7927e-006 -5.81171e-007 1.31089e-006 -4.93101e-007 -5.59556e-007 -1.59028e-015 0 7.15625e-015 -4.95563e-007 -2.7927e-006 -5.81171e-007 1.31089e-006 -4.93101e-007 -5.59556e-007 -7.95139e-016 -6.36111e-015 -0 -1.59028e-015 0 7.15625e-015 -4.95563e-007 -2.7927e-006 -5.81171e-007 1.31089e-006 -4.93101e-007 -5.59556e-007 -1.59028e-015 0 7.15625e-015 -4.95563e-007 -2.7927e-006 -5.81171e-007 1.31089e-006 -4.93101e-007 -5.59556e-007 -0.812972 5.03182 -5.93261 86.5879 -1.44319 -31.5025 -14.7845 -11.4643 94.7397 1.01052 -16.478 7.68682 -4.41391e-032 3.97569e-016 6.36111e-015 -1.98785e-016 7.95139e-016 3.18055e-015 -1.78906e-015 -3.97569e-016 -3.18055e-015 1.59028e-015 -3.97569e-016 6.36111e-015 -9.93923e-016 0 6.36111e-015 -2.38542e-015 1.19271e-015 -3.18055e-015 -2.5842e-015 0 -3.18055e-015 -9.93923e-016 0 6.36111e-015 -2.38542e-015 1.19271e-015 -3.18055e-015 -2.5842e-015 0 -3.18055e-015 1.59028e-015 -3.97569e-016 6.36111e-015 -9.93923e-016 0 6.36111e-015 -2.38542e-015 1.19271e-015 -3.18055e-015 -2.5842e-015 0 -3.18055e-015 -9.93923e-016 0 6.36111e-015 -2.38542e-015 1.19271e-015 -3.18055e-015 -2.5842e-015 0 -3.18055e-015 60.0056 -49.0293 91.3552 -131.584 59.9863 136.413 5.80922 28.7341 -6.40773 -45.6234 -59.4833 -52.7926 15.3819 77.7912 -16.4113 -7.93419 18.6809 -0.489884 
-8.66894 6.61757 0.450262 90 -3.97569e-016 7.00164 0.185971 5.5538 -0.171875 0.391556 11.107 -0.364543 0.391547 11.107 -0.364551 -0.209624 8.3458 0.0571181 -13.4767 9.73263 2.33965 -32.481 4.75474 -18.2259 -15.606 2.95242 -35.4966 -22.7687 18.4523 1.58921 -5.11958 2.05378 1.06292 -0 0 3.97569e-016 8.85029e-007 -3.22674e-006 -4.50213e-007 -3.03595e-007 7.93992e-008 -8.09837e-007 1.32417e-031 -9.54166e-015 7.95139e-016 -4.19321e-031 3.18055e-015 7.55382e-015 8.85029e-007 -3.22674e-006 -4.50213e-007 -3.03595e-007 7.93992e-008 -8.09837e-007 -4.19321e-031 3.18055e-015 7.55382e-015 8.85029e-007 -3.22674e-006 -4.50213e-007 -3.03595e-007 7.93992e-008 -8.09837e-007 1.32417e-031 -9.54166e-015 7.95139e-016 -4.19321e-031 3.18055e-015 7.55382e-015 8.85029e-007 -3.22674e-006 -4.50213e-007 -3.03595e-007 7.93992e-008 -8.09837e-007 -4.19321e-031 3.18055e-015 7.55382e-015 8.85029e-007 -3.22674e-006 -4.50213e-007 -3.03595e-007 7.93992e-008 -8.09837e-007 -1.38599 5.37256 -5.86074 81.0722 -1.49177 -30.0251 -14.9772 -8.75274 87.7715 1.05766 -15.5999 7.94035 -7.95139e-016 -3.97569e-016 3.18055e-015 1.99133e-006 6.84456e-007 2.93903e-007 -7.95139e-016 9.93923e-016 -3.18055e-015 -7.95139e-016 -9.93923e-016 3.18055e-015 1.09332e-015 -3.97569e-015 1.59028e-014 1.99133e-006 6.84456e-007 2.93903e-007 4.27387e-015 -6.95746e-016 -3.18055e-015 1.09332e-015 -3.97569e-015 1.59028e-014 1.99133e-006 6.84456e-007 2.93903e-007 4.27387e-015 -6.95746e-016 -3.18055e-015 -7.95139e-016 -9.93923e-016 3.18055e-015 1.09332e-015 -3.97569e-015 1.59028e-014 1.99133e-006 6.84456e-007 2.93903e-007 4.27387e-015 -6.95746e-016 -3.18055e-015 1.09332e-015 -3.97569e-015 1.59028e-014 1.99133e-006 6.84456e-007 2.93903e-007 4.27387e-015 -6.95746e-016 -3.18055e-015 51.9269 -51.5443 82.9078 -122.494 65.3086 128.092 5.44322 25.8914 -5.97855 -36.8841 -57.2832 -44.63 9.81125 72.7122 -11.8533 -7.73815 17.1235 0.609114 
